<?xml version="1.0" encoding="UTF-8"?>
<!-- Generator: Adobe Illustrator 22.0.0, SVG Export Plug-In . SVG Version: 6.00 Build 0)  -->
<svg xmlns="http://www.w3.org/2000/svg" xmlns:xlink="http://www.w3.org/1999/xlink" version="1.1" id="Layer_1" x="0px" y="0px" width="811.9px" height="368.5px" viewBox="0 0 811.9 368.5" style="enable-background:new 0 0 811.9 368.5;" xml:space="preserve">
<style type="text/css">
	.st0{fill-rule:evenodd;clip-rule:evenodd;fill:#0D6C7D;}
</style>
<g>
	<path class="st0" d="M774.4,212.3l-17.8-55.1l-1.6-4.8h5.1h11.2h2.8l0.8,2.7l8.9,31l8.7-30.9l0.8-2.7h2.8h10.9h5l-1.5,4.8   l-16.6,53.6l-3.1,9.9l0,0.1c-0.3,0.8-0.6,1.6-0.9,2.4c-0.3,0.7-0.5,1.4-0.9,2.1c-0.3,0.8-0.6,1.4-0.8,1.9h0   c-0.3,0.7-0.6,1.3-0.9,1.7l0,0c-0.3,0.5-0.6,0.9-0.9,1.4c-0.3,0.5-0.7,0.9-1,1.3l0,0c-0.4,0.4-0.7,0.8-1.1,1.2   c-0.2,0.2-0.4,0.3-0.5,0.5l0,0.1l-0.6,0.5c-0.4,0.3-0.9,0.7-1.3,1c-0.4,0.3-0.9,0.5-1.4,0.8l0,0c-0.5,0.2-1,0.5-1.5,0.7   c-0.5,0.2-1,0.4-1.6,0.6l0,0c-0.5,0.2-1.1,0.3-1.7,0.5c-0.6,0.1-1.2,0.2-1.8,0.3c-0.6,0.1-1.2,0.2-1.9,0.2c-0.7,0-1.3,0.1-1.9,0.1   c-0.6,0-1.2,0-2-0.1c-0.6,0-1.3-0.1-2-0.2v0c-0.7-0.1-1.2-0.2-1.5-0.2l0,0c-0.4-0.1-0.9-0.2-1.5-0.3l-2.6-0.6l-0.3-2.7l-0.9-9.5   l-0.5-4.9l4.8,0.9c0.2,0,0.4,0.1,0.7,0.1c0.2,0,0.4,0.1,0.6,0.1c0.3,0,0.7,0.1,1.2,0.1v0c0.3,0,0.7,0,1,0c0.6,0,1.2,0,1.6-0.1   c0.4-0.1,0.8-0.2,1.2-0.4c0.3-0.2,0.6-0.4,0.9-0.6c0.3-0.2,0.6-0.5,0.8-0.9c0.3-0.4,0.6-0.9,0.9-1.4c0.3-0.5,0.5-1.1,0.8-1.6   c0.3-0.7,0.5-1.3,0.7-1.9v0C774.1,213.3,774.2,212.9,774.4,212.3 M760.1,156.1l18,55.8l0.1,0.3l-0.1,0.3c-0.4,1.6-0.9,3.2-1.5,4.5   c-0.6,1.4-1.3,2.6-2,3.7c-0.8,1.2-1.9,2.1-3.2,2.7c-1.3,0.6-2.7,0.9-4.4,0.9c-0.8,0-1.7-0.1-2.7-0.2c-0.5-0.1-1-0.1-1.5-0.2   l0.9,9.5c0.9,0.2,1.8,0.4,2.7,0.5c1.1,0.1,2.3,0.2,3.5,0.2c1.2,0,2.3-0.1,3.3-0.2c1-0.1,2-0.4,2.9-0.6c0.9-0.3,1.7-0.6,2.5-1   c0.8-0.4,1.4-0.8,2-1.3l0,0c0.6-0.5,1.2-1.1,1.7-1.7c0.5-0.7,1.1-1.4,1.5-2.2c0.5-0.8,1-1.9,1.5-3.1c0.5-1.2,1.1-2.7,1.6-4.3   l3.1-9.9l16.6-53.6H796l-11.1,39.7l-1.1,3.8l-1.1-3.8l-11.4-39.7H760.1z M740.3,179.5V211h10.5v-35.4c0-2.7-0.1-5-0.3-6.9   c-0.2-1.9-0.5-3.4-0.9-4.5c-0.6-1.6-1.3-2.9-2.1-4.1c-0.8-1.1-1.8-2.1-3-2.9c-1.1-0.8-2.4-1.4-3.8-1.8c-1.4-0.4-2.9-0.6-4.6-0.6   c-1.3,0-2.6,0.2-3.8,0.5c-1.2,0.3-2.4,0.9-3.5,1.6c-1.2,0.7-2.3,1.6-3.4,2.7c-1.1,1.1-2.2,2.4-3.2,3.8l-1.1,1.6l-0.8-1.7   c-0.7-1.4-1.5-2.7-2.3-3.8c-0.9-1.1-1.8-1.9-2.9-2.6h0c-2.1-1.4-4.6-2.1-7.4-2.1c-2.7,0-5.2,0.7-7.6,2.1c-2.4,1.4-4.6,3.6-6.6,6.4   l-2,2.9v-3.5v-6.7h-9.5V211h10.5v-26.6c0-2.8,0.1-5.1,0.3-7.1c0.2-2,0.4-3.7,0.8-4.9c0.4-1.3,0.9-2.4,1.5-3.4   c0.6-1,1.4-1.9,2.3-2.6c1.8-1.4,3.8-2.1,6-2.1c0.9,0,1.8,0.1,2.5,0.3c0.8,0.2,1.5,0.6,2.1,1.1c0.6,0.5,1.1,1.1,1.5,1.8   c0.4,0.7,0.7,1.5,1,2.4c0.2,0.9,0.4,2.3,0.6,4.1c0.1,1.8,0.2,4.1,0.2,6.9V211h10.5v-26.3c0-2.7,0.1-5.1,0.3-7.1   c0.2-2,0.5-3.7,0.8-5c0.4-1.3,0.9-2.5,1.5-3.5c0.6-1.1,1.4-2,2.3-2.7l0,0c0.9-0.7,1.8-1.3,2.8-1.6c1-0.4,2-0.6,3-0.6   c1.4,0,2.7,0.3,3.8,1c1.1,0.6,2,1.6,2.7,2.8l0,0c0.5,0.9,0.9,2.4,1.1,4.4C740.2,174.3,740.3,176.6,740.3,179.5z M662.4,190.6H642   l0,0.3c0.1,0.9,0.3,1.7,0.5,2.4c0.2,0.7,0.5,1.4,0.8,2c0.3,0.6,0.6,1.1,1,1.6l0,0c0.4,0.5,0.8,0.9,1.2,1.3c0.4,0.3,0.8,0.6,1.2,0.8   l0,0c0.9,0.4,1.8,0.7,2.9,0.7c0.4,0,0.7,0,1-0.1c0.3-0.1,0.6-0.1,0.8-0.2c0.2-0.1,0.5-0.2,0.7-0.4c0.3-0.2,0.5-0.3,0.7-0.5l0,0   c0.2-0.2,0.4-0.4,0.6-0.7c0.2-0.3,0.5-0.7,0.6-1.1c0.3-0.7,0.6-1.4,0.9-2.3l0.9-3.3l3.3,0.7l1.6,0.3L662.4,190.6z M655.8,176   c-0.1-0.8-0.3-1.6-0.5-2.3c-0.2-0.7-0.4-1.3-0.7-1.9c-0.3-0.5-0.6-1-0.9-1.4l0,0c-0.1-0.1-0.2-0.2-0.3-0.3l-0.7-0.7l-0.1-0.1   c-0.4-0.3-0.7-0.5-1.1-0.7c-0.3-0.2-0.7-0.3-1.1-0.4c-0.4-0.1-0.8-0.1-1.3-0.1c-0.5,0-1,0-1.4,0.1c-0.4,0.1-0.8,0.3-1.2,0.5   c-0.4,0.2-0.8,0.5-1.1,0.8c-0.4,0.3-0.7,0.7-1.1,1.2c-0.3,0.4-0.6,0.9-0.9,1.5c-0.3,0.6-0.5,1.2-0.7,1.9c-0.2,0.6-0.3,1.4-0.4,2.2   l0,0.1h13.6L655.8,176z M640.1,156.7L640.1,156.7l-0.2,0c-2.5,1.3-4.7,3.2-6.7,5.7h0c-1.8,2.3-3.2,5.1-4.2,8.3l0,0.1l0,0.1l0,0.1   l0,0.1l0,0.1l0,0.1l0,0.1l-0.1,0.4c-1,3.6-1.5,7.7-1.5,12.4c0,3.9,0.4,7.4,1.2,10.6c0.8,3.2,1.9,6,3.5,8.5c1.9,3.1,4.3,5.4,7.3,6.9   c2.9,1.5,6.4,2.3,10.5,2.3c2.5,0,4.9-0.3,7-1c2.1-0.7,4-1.7,5.6-3.1c1.7-1.4,3.1-3.1,4.4-5.1c1.1-1.7,1.9-3.7,2.7-5.8h0l0-0.1   l-1.2-0.2l-0.1,0.1l-9.3-1.9c-0.3,1.1-0.7,2.1-1.1,2.9c-0.6,1.2-1.3,2.1-2,2.8c-0.8,0.7-1.7,1.3-2.6,1.7c-1,0.4-2,0.6-3.2,0.6h-0.1   l0.1-0.1c-1.6,0-3.1-0.4-4.5-1.1c-1.4-0.7-2.6-1.7-3.7-3.1c-1.1-1.4-1.9-3-2.5-4.9c-0.5-1.8-0.8-3.9-0.9-6.3l0-1.1h1.1h30.9   c0-5.2-0.4-9.8-1.3-13.8l0,0l0,0l0-0.1c-1-4.2-2.4-7.6-4.4-10.3c-2-2.7-4.3-4.7-7-6c-2-1-4.3-1.6-6.8-1.9l0.1,0.1   c-0.8-0.1-1.6-0.1-2.5-0.1C645.3,154.9,642.6,155.5,640.1,156.7z M659.7,179.9h-1.1h-19.1h-1.1l0-1.1c0-2.2,0.2-4.1,0.7-5.9   l0.1-0.3l0,0l0-0.1l0,0l0-0.1l0,0l0-0.1l0,0l0-0.1l0,0l0-0.1c0.5-1.4,1.1-2.7,2-3.8c1-1.3,2.2-2.3,3.5-3c1.3-0.7,2.8-1,4.3-1   c1.5,0,2.9,0.3,4.1,1c1.3,0.6,2.4,1.6,3.4,2.9c1,1.3,1.8,2.8,2.3,4.6c0.5,1.8,0.8,3.8,0.8,6.1L659.7,179.9z M601.7,187.8   c0.1-1.1,0.2-2.4,0.2-3.9c0-1.6-0.1-3-0.2-4.4l0,0c-0.1-1.3-0.3-2.5-0.5-3.6c-0.2-1-0.5-2-0.8-2.8c-0.3-0.8-0.7-1.4-1-2   c-0.4-0.6-0.8-1.1-1.3-1.5c-0.4-0.4-0.8-0.7-1.3-1c-0.9-0.5-1.9-0.7-3-0.7c-0.6,0-1.1,0.1-1.6,0.2c-0.4,0.1-0.9,0.3-1.4,0.6l0,0   c-0.4,0.2-0.9,0.6-1.3,1c-0.4,0.4-0.9,0.9-1.3,1.5l0,0c-0.4,0.5-0.7,1.2-1,1.9c-0.3,0.8-0.6,1.7-0.8,2.5l0,0   c-0.2,1-0.4,2.1-0.5,3.1c-0.1,1.1-0.2,2.3-0.2,3.7c0,1.5,0,2.9,0.1,4.1c0.1,1.3,0.2,2.4,0.4,3.4c0.2,1,0.4,1.9,0.6,2.7   c0.2,0.7,0.5,1.4,0.7,1.9l0,0c0.4,0.8,0.9,1.5,1.4,2.1c0.5,0.6,1,1,1.5,1.4c0.5,0.3,1,0.6,1.6,0.8c0.6,0.2,1.2,0.3,1.9,0.3   c0.5,0,1-0.1,1.4-0.2c0.4-0.1,0.9-0.3,1.3-0.6c0.4-0.3,0.9-0.6,1.3-1c0.5-0.4,0.9-1,1.3-1.6l0,0c0.4-0.5,0.7-1.2,1.1-2h0   c0.3-0.8,0.6-1.7,0.8-2.6v0C601.4,190,601.6,188.9,601.7,187.8z M571,183.4c0,4.7,0.5,8.8,1.5,12.4c1,3.6,2.4,6.6,4.3,9.1   c1.9,2.5,4,4.4,6.2,5.7c2.2,1.2,4.6,1.8,7.2,1.8c1.3,0,2.5-0.2,3.8-0.6c1.3-0.4,2.5-1,3.8-1.7c1.3-0.8,2.5-1.7,3.6-2.9   c1.1-1.2,2.1-2.5,3.1-4.1l2.1-3.4v4v7.3h9.6v-76.6h-10.5v27.3v3.4l-2-2.7c-1.9-2.5-3.9-4.4-6.1-5.7c-2.2-1.2-4.5-1.8-7-1.8   c-2.8,0-5.3,0.6-7.6,1.8c-2.3,1.2-4.4,3-6.2,5.4c-1.8,2.4-3.2,5.4-4.2,8.9C571.5,174.5,571,178.7,571,183.4z M605.6,183.9   c0,3-0.3,5.7-0.8,8c-0.5,2.4-1.4,4.3-2.5,5.9c-1.1,1.6-2.4,2.8-3.8,3.7c-1.4,0.8-3,1.3-4.7,1.3c-2.1,0-3.9-0.6-5.6-1.7   c-1.6-1.1-2.9-2.7-4.1-4.9l0,0c-0.8-1.5-1.3-3.4-1.7-5.7c-0.4-2.3-0.6-5-0.6-8.1c0-2.9,0.3-5.5,0.8-7.7c0.5-2.3,1.4-4.2,2.5-5.8v0   c1.1-1.6,2.4-2.7,3.8-3.5v0c1.4-0.8,3-1.2,4.7-1.2c1.8,0,3.4,0.4,4.8,1.2c1.4,0.8,2.7,2,3.8,3.6c1.1,1.6,1.9,3.6,2.4,6.1   C605.3,177.6,605.6,180.5,605.6,183.9z M515.5,191.6c0.4-1.7,0.9-3.2,1.7-4.7l0,0c0.4-0.8,0.8-1.5,1.2-2.1c0.5-0.7,1-1.3,1.5-1.8   c0.5-0.6,1.1-1.1,1.8-1.6c0.6-0.5,1.3-0.9,2-1.3c0.7-0.4,1.4-0.8,2.2-1.1c0.7-0.3,1.6-0.6,2.5-1c0.9-0.3,1.9-0.6,2.9-0.9   c1-0.3,2.1-0.6,3.3-0.8h0c1.3-0.3,2.6-0.6,4.1-1c1.2-0.3,2.3-0.6,3.3-0.9c1-0.3,1.9-0.6,2.7-0.9l0.4-0.1c0-0.6,0-1.1-0.1-1.6   c-0.1-0.5-0.1-1-0.2-1.3c-0.1-0.3-0.2-0.6-0.4-0.9v0c-0.1-0.2-0.2-0.3-0.3-0.5l0,0l0,0l0,0l0,0c-0.1-0.1-0.3-0.2-0.5-0.3   c-0.3-0.1-0.6-0.3-1-0.4c-0.5-0.1-1-0.2-1.5-0.3c-0.6-0.1-1.3-0.1-2.1-0.1c-0.5,0-1,0-1.3,0.1c-0.3,0-0.7,0.1-1,0.2   c-0.3,0.1-0.6,0.2-0.8,0.3c-0.2,0.1-0.4,0.2-0.6,0.4l0,0c-0.2,0.1-0.4,0.3-0.5,0.6c-0.2,0.2-0.4,0.5-0.6,0.9l0,0   c-0.1,0.2-0.3,0.5-0.4,0.9l0,0c-0.1,0.3-0.3,0.7-0.4,1.2l-1.1,3.1l-3.2-0.7l-9.4-2l-3.8-0.8l1-3.8c0.3-1.2,0.7-2.4,1.1-3.5   c0.4-1.1,0.9-2.2,1.5-3.2c0.6-1.2,1.3-2.2,2.1-3.2c0.8-1,1.6-1.9,2.6-2.7v0c0.9-0.8,2-1.5,3.2-2.1c1.1-0.6,2.4-1.1,3.7-1.4   c1.3-0.4,2.8-0.7,4.3-0.8c1.5-0.2,3.1-0.3,4.7-0.3c1.5,0,2.9,0.1,4.2,0.2c1.3,0.1,2.5,0.3,3.7,0.5c1.2,0.2,2.3,0.5,3.2,0.8   c1.1,0.4,2,0.8,2.9,1.3l0,0c0.8,0.5,1.5,0.9,2.2,1.5c0.7,0.5,1.4,1.1,1.9,1.7c0.6,0.6,1.1,1.2,1.6,1.9c0.5,0.7,0.9,1.4,1.2,2.1   c0.4,0.8,0.7,1.7,0.9,2.8c0.2,0.9,0.4,2,0.6,3.2c0.2,1.5,0.3,3.1,0.4,4.9h0.1l0,3l0,0.7h0v0l-0.2,17.6h0c0,2.6,0,4.7,0.1,6.4   c0.1,1.7,0.2,3.2,0.4,4.3c0.1,0.5,0.2,1.1,0.3,1.7c0.1,0.6,0.3,1.1,0.5,1.7c0.1,0.5,0.3,0.9,0.4,1.1c0.1,0.4,0.3,0.8,0.4,1.2l1.9,5   h-5.3H551h-2.8l-0.8-2.7l-0.3-1.1l-0.4,0.3c-0.7,0.6-1.4,1-2,1.5c-0.7,0.4-1.4,0.9-2.1,1.2c-0.7,0.3-1.4,0.6-2.2,0.9   c-0.7,0.3-1.5,0.5-2.2,0.7l0,0c-0.8,0.2-1.6,0.3-2.3,0.4c-0.8,0.1-1.6,0.1-2.4,0.1c-2.8,0-5.3-0.5-7.6-1.4l0,0   c-2.3-0.9-4.4-2.4-6.1-4.3l0,0c-0.1-0.1-0.2-0.3-0.4-0.4l-0.6-0.7v-0.1c-0.4-0.6-0.8-1.2-1.2-1.8c-0.6-1.1-1.2-2.2-1.6-3.3   c-0.4-1.1-0.7-2.4-0.9-3.7c-0.2-1.3-0.3-2.6-0.3-3.9C514.9,194.9,515.1,193.2,515.5,191.6z M544.7,193.7c0-0.4,0.1-0.9,0.1-1.5   c0-0.7,0.1-1.4,0.1-2c0-0.3,0-1,0-1.8c-0.8,0.2-1.5,0.4-2,0.6h0c-0.8,0.2-1.6,0.4-2.5,0.7c-0.8,0.2-1.6,0.4-2.3,0.6   c-0.8,0.2-1.4,0.4-1.8,0.6c-0.5,0.2-0.9,0.4-1.3,0.6c-0.3,0.1-0.4,0.2-0.6,0.3c-0.3,0.2-0.5,0.5-0.7,0.7l0,0   c-0.2,0.2-0.3,0.5-0.5,0.8l0,0c-0.1,0.2-0.2,0.5-0.3,0.8c-0.1,0.3-0.1,0.6-0.1,1c0,0.4,0,0.8,0.1,1.1c0.1,0.4,0.1,0.7,0.3,1l0,0   c0.1,0.3,0.3,0.6,0.4,0.9c0.2,0.3,0.4,0.6,0.6,0.9c0.2,0.3,0.5,0.5,0.7,0.7h0c0.2,0.2,0.4,0.3,0.7,0.4c0.5,0.2,1.1,0.3,1.8,0.3   c0.4,0,0.8,0,1.2-0.1c0.4-0.1,0.8-0.2,1.2-0.4c0.4-0.2,0.9-0.4,1.2-0.6c0.4-0.2,0.8-0.5,1.2-0.9l0,0c0.3-0.3,0.6-0.6,0.8-0.8   c0.2-0.3,0.4-0.6,0.6-0.9c0.2-0.3,0.4-0.6,0.5-0.9v0c0.1-0.4,0.3-0.7,0.3-1l0-0.1C544.6,194.3,544.7,194,544.7,193.7L544.7,193.7z    M520.5,188.6c-1.2,2.4-1.8,5.1-1.8,8.1c0,2.3,0.3,4.4,1,6.3c0.7,1.9,1.7,3.6,3,5v0c2.6,2.9,6.3,4.4,10.9,4.4   c1.3,0,2.6-0.1,3.8-0.4c1.2-0.3,2.4-0.7,3.6-1.3c1.2-0.6,2.3-1.3,3.4-2.2c1.1-0.9,2.2-2,3.2-3.2l1.3-1.5l0.6,1.9   c0.1,0.2,0.1,0.4,0.2,0.8l0.3,1.1c0.2,0.9,0.4,1.7,0.6,2.4l0.3,1.1h10.2c-0.3-0.9-0.6-1.7-0.8-2.5c-0.4-1.3-0.7-2.6-0.9-3.8   c-0.4-2.5-0.6-6.2-0.6-11.3l0,0l0.2-17.6h0c0-3.3-0.1-6-0.4-8.2c-0.3-2.1-0.7-3.8-1.2-4.9c-0.5-1.1-1.2-2.1-2.1-3.1   c-0.9-0.9-2-1.8-3.3-2.5c-1.3-0.7-2.9-1.3-4.9-1.7c-2.1-0.4-4.5-0.6-7.3-0.6c-3,0-5.7,0.3-8,1c-2.2,0.6-4.1,1.6-5.5,2.8   c-1.5,1.2-2.8,2.8-3.8,4.8c-0.9,1.7-1.7,3.7-2.3,5.9l9.4,2c0.3-1,0.7-1.9,1.1-2.7c0.6-1.1,1.2-1.9,2-2.5c0.8-0.6,1.7-1.1,2.7-1.4   c1-0.3,2.1-0.5,3.4-0.5c1.8,0,3.3,0.2,4.5,0.5c1.3,0.4,2.4,0.9,3.2,1.7l0,0c0.7,0.8,1.3,1.8,1.6,3c0.3,1.2,0.5,2.5,0.5,4.1v1.5v0.7   l-0.6,0.3c-1.2,0.6-2.9,1.2-5,1.9c-2.1,0.6-4.6,1.3-7.6,1.9c-2.2,0.5-4.1,1-5.8,1.6c-1.6,0.6-3,1.2-4.1,1.8c-1.1,0.6-2,1.4-2.9,2.3   C521.8,186.4,521.1,187.4,520.5,188.6z M548.6,192.4c-0.1,1.3-0.2,2.3-0.4,3c-0.3,1.1-0.7,2.1-1.3,3c-0.6,0.9-1.3,1.8-2.1,2.5l0,0   c-1.1,1-2.3,1.7-3.5,2.2c-1.2,0.5-2.5,0.8-3.8,0.8c-1.2,0-2.3-0.2-3.3-0.7c-1-0.5-1.9-1.1-2.7-2c-0.8-0.9-1.3-1.8-1.7-2.9   c-0.4-1-0.6-2.2-0.6-3.4c0-1.2,0.2-2.4,0.7-3.4c0.5-1,1.2-2,2.2-2.8l0,0c0.6-0.5,1.6-1,2.9-1.5c1.2-0.5,2.7-0.9,4.5-1.4   c1.8-0.5,3.3-0.9,4.6-1.2c1.3-0.4,2.3-0.7,3.1-1l1.5-0.6v1.6v3C548.7,189.6,548.7,191.2,548.6,192.4z M464,190.6   c-0.3-2.3-0.4-4.6-0.4-6.9c0-2.5,0.1-4.8,0.4-7c0.3-2.2,0.7-4.4,1.3-6.3c0.6-1.9,1.3-3.8,2.2-5.6c0.9-1.7,1.9-3.3,3.1-4.8   c1.2-1.5,2.5-2.8,3.8-3.9c1.4-1.1,2.9-2.1,4.5-2.8c1.6-0.7,3.3-1.3,5.2-1.7c1.8-0.4,3.7-0.6,5.6-0.6c1.5,0,3.1,0.1,4.5,0.3   c1.5,0.2,2.9,0.5,4.2,0.9l0,0c1.4,0.4,2.6,1,3.7,1.6c1.2,0.6,2.3,1.4,3.3,2.3l0,0c1,0.9,1.9,1.8,2.8,2.9c0.8,1,1.6,2.2,2.3,3.5   c0.6,1.1,1.2,2.3,1.6,3.5c0.5,1.2,0.9,2.5,1.3,3.9l1.1,3.8l-3.9,0.8l-10.3,2.2l-3.6,0.8l-0.7-3.6c-0.1-0.4-0.2-0.8-0.3-1.2   c-0.1-0.4-0.3-0.8-0.4-1c-0.2-0.4-0.4-0.8-0.6-1.1c-0.2-0.3-0.4-0.6-0.7-0.8l0,0c-0.2-0.2-0.5-0.4-0.8-0.6   c-0.3-0.2-0.6-0.3-0.9-0.4l0,0c-0.3-0.1-0.7-0.2-1.1-0.3c-0.4-0.1-0.8-0.1-1.3-0.1c-0.6,0-1.2,0.1-1.7,0.2c-0.5,0.1-1,0.3-1.4,0.5   c-0.4,0.2-0.9,0.5-1.3,0.9c-0.4,0.4-0.8,0.8-1.2,1.3c-0.3,0.5-0.7,1-0.9,1.7c-0.3,0.7-0.5,1.6-0.8,2.5c-0.2,1-0.4,2.1-0.5,3.3   c-0.1,1.1-0.2,2.5-0.2,4c0,1.6,0.1,3.1,0.2,4.5c0.1,1.4,0.3,2.6,0.5,3.7c0.2,1,0.5,2,0.8,2.8c0.3,0.8,0.6,1.4,1,1.9   c0.4,0.5,0.8,1,1.2,1.4c0.4,0.4,0.8,0.7,1.3,0.9c0.5,0.3,0.9,0.4,1.4,0.6c0.5,0.1,1.1,0.2,1.7,0.2c0.5,0,0.9,0,1.3-0.1   c0.4-0.1,0.7-0.2,1.1-0.3c0.3-0.1,0.6-0.3,0.9-0.5c0.3-0.2,0.6-0.4,0.8-0.7l0,0c0.3-0.3,0.5-0.6,0.7-1c0.3-0.4,0.5-0.9,0.7-1.5   c0.2-0.5,0.4-1,0.5-1.6l0,0c0.1-0.5,0.3-1.2,0.4-2l0.7-3.7l3.7,0.7l10.4,2.1l3.7,0.7l-0.8,3.7c-0.3,1.5-0.7,3-1.2,4.5   c-0.5,1.4-1,2.8-1.6,4c-0.7,1.4-1.5,2.7-2.3,3.9l0,0c-0.9,1.2-1.8,2.3-2.9,3.3c-1.1,1-2.2,1.9-3.5,2.6c-1.2,0.7-2.5,1.4-4,1.9   c-2.8,1-5.9,1.5-9.3,1.5c-1.9,0-3.7-0.2-5.5-0.6c-1.8-0.4-3.5-0.9-5.1-1.7c-1.6-0.8-3.1-1.7-4.5-2.8c-1.4-1.1-2.7-2.4-3.8-3.9   c-1.1-1.4-2.2-3-3.1-4.8c-0.9-1.7-1.6-3.6-2.1-5.5h0C464.7,195,464.3,192.9,464,190.6z M467.3,183.7c0,4.6,0.5,8.6,1.5,12.2   c1,3.5,2.5,6.5,4.5,9.1c2,2.5,4.3,4.4,7,5.6c2.7,1.2,5.7,1.9,9.1,1.9c3,0,5.7-0.4,8-1.2c2.3-0.8,4.4-2,6.1-3.7   c1.8-1.6,3.2-3.7,4.4-6.2c1.1-2.2,1.9-4.8,2.5-7.6l-10.4-2.1c-0.3,1.6-0.7,3-1.2,4.2c-0.6,1.5-1.3,2.8-2.2,3.7   c-0.9,0.9-1.9,1.6-3,2.1c-1.1,0.5-2.4,0.7-3.7,0.7c-1.8,0-3.4-0.4-4.9-1.2c-1.5-0.8-2.7-2-3.8-3.5c-1-1.5-1.8-3.6-2.3-6.1   c-0.5-2.5-0.7-5.5-0.7-8.9c0-3.1,0.2-5.8,0.7-8.1c0.5-2.3,1.3-4.2,2.3-5.6c1.1-1.4,2.3-2.5,3.7-3.3c1.4-0.7,3-1.1,4.8-1.1   c1.3,0,2.5,0.2,3.7,0.6c1.1,0.4,2.1,1.1,3,1.9l0,0c0.9,0.9,1.6,1.9,2.1,3.1c0.4,0.9,0.7,1.9,0.9,3l10.3-2.2   c-0.7-2.5-1.6-4.7-2.6-6.6c-1.2-2.2-2.6-3.9-4.2-5.3c-1.6-1.4-3.5-2.5-5.7-3.2c-2.2-0.7-4.7-1.1-7.6-1.1c-3.4,0-6.5,0.6-9.2,1.9   c-2.7,1.2-5,3.1-7,5.6c-2,2.5-3.5,5.5-4.5,9.1C467.8,175,467.3,179.1,467.3,183.7z M433.6,178.3l-5.7-18l-5.6,18H433.6z    M412.3,150.9l5.8-17.7l0.8-2.5h2.7h12.7h2.6l0.9,2.5l26,76.6l1.7,4.9h-5.2h-12.2h-2.7l-0.8-2.6l-4.9-15.4h-23l-4.3,14v61   l84.5,84.5l142.2-142.2c-0.5-0.2-1-0.5-1.5-0.7c-1.8-0.9-3.4-2.1-4.9-3.5c-1.4-1.4-2.7-2.9-3.8-4.8l0,0c-0.9-1.4-1.6-3-2.3-4.6   c-0.6-1.6-1.2-3.2-1.6-5c-0.4-1.8-0.7-3.6-1-5.5c-0.2-1.9-0.3-3.9-0.3-6c0-2.5,0.1-4.8,0.4-7c0.3-2.2,0.7-4.3,1.3-6.4   c0.6-2,1.3-3.8,2.1-5.6c0.9-1.8,1.9-3.4,3-4.9l0,0c0.2-0.2,0.3-0.4,0.5-0.6l0.7-0.9h0.1c0.8-0.9,1.6-1.7,2.5-2.5h0   c1.1-0.9,2.2-1.7,3.3-2.4l-17.6-17.6V211v3.7h-3.7h-9.6h-3.7V211v0c-0.3,0.2-0.6,0.5-0.8,0.7c-0.8,0.6-1.5,1.2-2.2,1.6h0   c-0.8,0.5-1.6,0.9-2.3,1.2c-0.8,0.4-1.6,0.7-2.4,0.9l0,0c-0.8,0.2-1.6,0.4-2.4,0.5c-0.8,0.1-1.6,0.2-2.4,0.2   c-1.6,0-3.2-0.2-4.7-0.6c-1.5-0.4-2.9-1-4.4-1.7c-1.4-0.8-2.7-1.7-3.9-2.8c-1.2-1.1-2.3-2.4-3.4-3.8h0c-1.1-1.4-2-3.1-2.9-4.8   c-0.8-1.7-1.5-3.6-2-5.6c-0.5-2-0.9-4.1-1.2-6.3c-0.3-2.2-0.4-4.6-0.4-7c0-2.5,0.1-4.9,0.4-7.1c0.3-2.2,0.6-4.4,1.2-6.3   c0.5-2,1.2-3.8,2-5.5c0.8-1.7,1.8-3.3,2.8-4.7c1.1-1.4,2.2-2.6,3.4-3.7c1.3-1.1,2.6-2,4-2.7c1.4-0.7,2.9-1.3,4.5-1.6   c1.6-0.4,3.2-0.5,4.8-0.5c1.6,0,3.1,0.2,4.6,0.6l0,0c1.5,0.4,2.9,1,4.3,1.7c0.9,0.5,1.8,1.1,2.6,1.8v-20.9v-3.7h3.7h8.5L496.7,13.3   l-84.5,84.5V150.9z M428.9,151.3l9.3,29.2l0.5,1.5h-1.5h-18.3h-1.5l0.4-1.4l9-29.2l1.1-3.4L428.9,151.3z M421.6,134.4l-9.3,28.4   v0.2l-15.9,48.2h11.9l5.3-17.2l0.2-0.8h0.8h26.8h0.8l0.2,0.7l5.5,17.2h0l0,0.1h12.2l-26-76.6h0l0-0.1H421.6z M129.3,177.1   c0.3-2.2,0.7-4.3,1.3-6.4c0.6-2,1.3-3.8,2.1-5.6c0.9-1.8,1.9-3.4,3-4.9l0,0c0.1-0.2,0.3-0.4,0.5-0.6l0.7-0.9h0.1   c0.8-0.9,1.6-1.7,2.5-2.4l0,0c1.3-1.1,2.8-2.1,4.3-2.9c1.5-0.8,3.1-1.3,4.8-1.7c1.7-0.4,3.4-0.6,5.2-0.6c2,0,3.8,0.2,5.6,0.6   c1.1,0.2,2.1,0.5,3.1,0.9L315,0l91.4,91.4l87.3-87.3l3.1-3.1l3.1,3.1l147.1,147.1c0.5,0,0.9,0,1.4,0c2,0,3.8,0.2,5.6,0.6   c1.8,0.4,3.5,1,5.2,1.8c1.6,0.8,3.1,1.8,4.5,3c1.4,1.2,2.6,2.5,3.8,4.1c1.2,1.6,2.2,3.4,3,5.3c0.8,1.9,1.5,4,2,6.3   c0.4,1.7,0.7,3.5,0.9,5.4l4,4l0.8,0.8v-26.5v-3.7h3.7h9.5h3.7v3.6c1-0.8,2-1.6,3-2.2c1.5-0.9,3-1.5,4.6-2c1.6-0.4,3.2-0.7,4.9-0.7   c1.7,0,3.4,0.2,5,0.7c1.2,0.3,2.4,0.8,3.5,1.4h0.1l0.6,0.4l0.4,0.3l0,0c0.7,0.5,1.4,1,2,1.5c0.6,0.5,1.2,1.1,1.7,1.8h0   c0.3,0.3,0.5,0.7,0.8,1.1c0.4-0.4,0.8-0.9,1.2-1.2c0.7-0.7,1.3-1.2,2-1.8c0.7-0.5,1.4-1,2.1-1.5c0.7-0.4,1.4-0.8,2.2-1.1   c0.8-0.4,1.6-0.6,2.3-0.8c0.7-0.2,1.5-0.4,2.4-0.5c0.8-0.1,1.6-0.2,2.4-0.2c0.9,0,1.9,0.1,2.9,0.2c1,0.1,1.9,0.3,2.7,0.5   c0.9,0.3,1.8,0.6,2.5,0.9v0c0.8,0.4,1.6,0.8,2.3,1.3h0c0.7,0.5,1.4,1.1,2.1,1.7c0.6,0.6,1.2,1.3,1.8,2c0.5,0.7,1,1.5,1.5,2.4   c0.4,0.9,0.8,1.7,1.2,2.6c0.3,0.7,0.5,1.5,0.7,2.5c0.2,0.9,0.3,1.9,0.4,2.9c0.1,1,0.2,2.1,0.3,3.4c0.1,1.4,0.1,2.7,0.1,3.9V211v3.7   h-3.7h-10.5h-3.7V211v-31.5c0-1.5,0-2.8-0.1-3.8c0-1-0.1-2-0.2-2.9c-0.1-0.9-0.2-1.6-0.4-2.1c-0.1-0.3-0.2-0.6-0.3-0.8l-0.1-0.1   c-0.2-0.4-0.4-0.7-0.6-0.9c-0.2-0.2-0.4-0.4-0.7-0.5c-0.2-0.1-0.5-0.2-0.8-0.3c-0.3-0.1-0.7-0.1-1.1-0.1c-0.3,0-0.6,0-0.9,0.1   c-0.3,0-0.6,0.1-0.8,0.2c-0.3,0.1-0.6,0.2-0.8,0.4c-0.3,0.2-0.6,0.4-0.9,0.6l0,0c-0.3,0.2-0.5,0.5-0.8,0.8l0,0   c-0.2,0.3-0.5,0.6-0.7,1c-0.2,0.4-0.4,0.8-0.6,1.2c-0.2,0.4-0.3,0.9-0.5,1.4c-0.2,0.5-0.3,1.2-0.4,1.8c-0.1,0.7-0.2,1.5-0.3,2.5   c-0.1,1.1-0.2,2.1-0.2,3.1c0,0.9-0.1,2.1-0.1,3.7V211v3.7h-3.7h-10.5h-3.7V211v-30.2c0-1.7,0-2.9,0-3.7c0-1-0.1-2-0.1-3   c-0.1-0.9-0.1-1.6-0.2-2.2c-0.1-0.5-0.1-0.9-0.2-1.2v0c-0.1-0.3-0.2-0.6-0.3-0.9c-0.1-0.2-0.2-0.4-0.3-0.6l0,0   c-0.1-0.2-0.2-0.3-0.3-0.5c-0.1-0.1-0.2-0.2-0.3-0.3h0c-0.1-0.1-0.2-0.2-0.3-0.2c-0.1-0.1-0.3-0.1-0.4-0.2l0,0   c-0.2-0.1-0.4-0.1-0.6-0.1c-0.2,0-0.5,0-0.8,0c-0.7,0-1.4,0.1-1.9,0.3c-0.6,0.2-1.2,0.5-1.8,1l0,0c-0.3,0.2-0.5,0.5-0.8,0.7   c-0.2,0.3-0.4,0.6-0.7,0.9c-0.2,0.4-0.4,0.7-0.6,1.1l0,0c-0.2,0.4-0.3,0.9-0.5,1.4l0,0c-0.1,0.5-0.3,1-0.4,1.7   c-0.1,0.7-0.2,1.5-0.3,2.5c-0.1,1.1-0.2,2.1-0.2,3.1c0,0.9-0.1,2.2-0.1,3.7V211v3.7h-3.7h-10.5h-3.7V211v-24l-0.8,0.8l-6.2,6.2   l2.8,0.6l-1.3,4c-0.4,1.2-0.9,2.3-1.4,3.4c-0.5,1.1-1.1,2.2-1.7,3.1v0c-0.7,1.1-1.5,2.2-2.4,3.2c-0.9,1-1.8,1.9-2.8,2.7l0,0   c-1,0.8-2.1,1.6-3.2,2.2l0,0c-1.1,0.6-2.3,1.1-3.6,1.5c-1.3,0.4-2.6,0.7-3.9,0.9c-1.4,0.2-2.7,0.3-4.2,0.3l-0.5,0L499.8,365.5   l-3.1,3.1l-3.1-3.1L405.1,277L315,367.1L162.9,215c-1.2,0.4-2.5,0.7-3.8,0.9c-1.4,0.2-2.7,0.3-4.2,0.3c-2.3,0-4.4-0.2-6.4-0.7   c-2-0.4-3.9-1.1-5.7-2.1c-1.8-0.9-3.4-2.1-4.9-3.5c-1.4-1.4-2.7-2.9-3.8-4.8l0,0c-0.9-1.4-1.6-3-2.3-4.5c-0.6-1.6-1.2-3.2-1.6-5   c-0.4-1.8-0.7-3.6-1-5.5c-0.2-1.9-0.3-3.9-0.3-6C128.9,181.6,129,179.3,129.3,177.1z M106.7,211v-76.6v-3.7h3.7h10.5h3.7v3.7V211   v3.7h-3.7h-10.5h-3.7V211z M110.4,134.4V211h10.5v-76.6H110.4z M69.7,176.1L69.7,176.1l13.6,0.1l0-0.2c-0.1-0.8-0.3-1.6-0.5-2.3   c-0.2-0.7-0.4-1.3-0.7-1.9v0c-0.3-0.5-0.6-1-0.9-1.4v0c-0.3-0.4-0.7-0.8-1.1-1.1c-0.4-0.3-0.7-0.5-1.1-0.7   c-0.3-0.2-0.7-0.3-1.1-0.4c-0.4-0.1-0.8-0.1-1.3-0.1c-0.5,0-1,0-1.4,0.1c-0.4,0.1-0.8,0.3-1.2,0.5c-0.4,0.2-0.8,0.5-1.1,0.8   c-0.4,0.3-0.7,0.7-1.1,1.2c-0.4,0.5-0.7,1-0.9,1.5c-0.2,0.5-0.4,1-0.6,1.6l-0.1,0.3C70,174.5,69.8,175.3,69.7,176.1z M51.4,177.1   c0.3-2.2,0.7-4.3,1.3-6.4c0.6-2,1.3-3.8,2.1-5.6c0.9-1.8,1.9-3.4,3-4.9l0,0c0.2-0.2,0.3-0.4,0.5-0.6l0.7-0.8h0.1   c0.8-0.9,1.6-1.7,2.5-2.5h0c1.4-1.2,2.8-2.1,4.3-2.9c1.5-0.8,3.1-1.3,4.8-1.7c1.7-0.4,3.4-0.6,5.2-0.6c2,0,3.8,0.2,5.6,0.6   c1.8,0.4,3.5,1,5.2,1.8c1.6,0.8,3.1,1.8,4.5,3c1.4,1.2,2.6,2.5,3.8,4.1c1.2,1.6,2.2,3.4,3,5.3c0.8,1.9,1.5,4,2,6.3   c0.5,2.1,0.8,4.4,1.1,6.9c0.2,2.4,0.3,5,0.3,7.7l0,3.7h-3.7H69.6l0,0.3c0.1,0.9,0.3,1.7,0.5,2.4c0.2,0.7,0.5,1.4,0.8,2   c0.3,0.6,0.6,1.1,1,1.6l0,0c0.4,0.5,0.8,0.9,1.2,1.3c0.4,0.3,0.8,0.6,1.2,0.8l0,0c0.4,0.2,0.9,0.4,1.3,0.5c0.5,0.1,1,0.2,1.5,0.2   c0.4,0,0.7,0,1-0.1c0.3-0.1,0.6-0.1,0.8-0.2c0.3-0.1,0.5-0.2,0.7-0.4c0.3-0.2,0.5-0.3,0.7-0.5l0,0c0.2-0.2,0.4-0.4,0.6-0.7l0,0   c0.2-0.3,0.4-0.6,0.6-1.1c0.3-0.7,0.6-1.4,0.9-2.3l0.9-3.3l3.3,0.7l10.5,2.1l4.1,0.8l-1.3,4c-0.4,1.2-0.9,2.4-1.4,3.5   c-0.5,1.1-1.1,2.2-1.7,3.1v0c-0.7,1.1-1.5,2.2-2.4,3.2c-0.9,1-1.8,1.9-2.8,2.7l0,0c-1,0.8-2.1,1.6-3.2,2.2   c-1.1,0.6-2.3,1.1-3.6,1.5c-1.3,0.4-2.6,0.7-3.9,0.9c-1.4,0.2-2.7,0.3-4.2,0.3c-2.3,0-4.4-0.2-6.4-0.7c-2-0.4-3.9-1.1-5.7-2.1   c-1.8-0.9-3.4-2.1-4.9-3.5c-1.4-1.4-2.7-2.9-3.8-4.8l0,0c-0.9-1.4-1.6-3-2.3-4.6c-0.6-1.6-1.2-3.2-1.6-5c-0.4-1.8-0.7-3.6-1-5.5   c-0.2-1.9-0.3-3.9-0.3-6C51,181.6,51.2,179.3,51.4,177.1z M67,179.9h-1.1l0-1.1c0-2.2,0.2-4.1,0.7-5.9l0,0c0.5-1.8,1.2-3.3,2.2-4.6   c1-1.3,2.2-2.3,3.5-3c1.3-0.7,2.8-1,4.3-1c1.5,0,2.9,0.3,4.1,1c1.3,0.6,2.4,1.6,3.4,2.9c1,1.3,1.8,2.8,2.3,4.6   c0.5,1.8,0.8,3.8,0.8,6.1l0,1.1h-1.1H67z M56.3,171.7c-1,3.6-1.5,7.7-1.5,12.4c0,3.9,0.4,7.4,1.2,10.6c0.8,3.2,1.9,6,3.5,8.5   c1.9,3.1,4.3,5.4,7.3,6.9c2.9,1.5,6.4,2.3,10.5,2.3c2.5,0,4.9-0.3,7-1c2.1-0.7,4-1.7,5.6-3.1c1.7-1.4,3.1-3.1,4.4-5.1   c1.1-1.7,1.9-3.7,2.7-5.8l-10.5-2.1c-0.3,1.1-0.7,2.1-1.1,2.9c-0.6,1.2-1.3,2.1-2,2.8c-0.8,0.7-1.7,1.3-2.6,1.7   c-1,0.4-2,0.6-3.2,0.6c-1.6,0-3.2-0.4-4.5-1.1c-1.4-0.7-2.6-1.7-3.7-3.1c-1.1-1.4-1.9-3-2.4-4.9c-0.5-1.8-0.8-3.9-0.9-6.3l0-1.1   h1.1h30.9c0-5.2-0.4-9.8-1.3-13.8c-1-4.2-2.4-7.6-4.4-10.3c-2-2.7-4.3-4.7-7-6c-2.7-1.3-5.7-2-9.2-2c-3,0-5.8,0.6-8.3,1.9   c-2.5,1.3-4.7,3.2-6.7,5.7h0C58.8,165.1,57.3,168.1,56.3,171.7z M3.7,130.7h50.8h3.7v3.7v11.1v3.7h-3.7h-16V211v3.7h-3.7H23.5h-3.7   V211v-61.8H3.7H0v-3.7v-11.1v-3.7H3.7z M54.5,134.4H3.7v11.1h18.7h1.1v1.1V211h11.3v-64.4v-1.1h1.1h18.6V134.4z M143.8,180l0-1.1   c0-2.2,0.2-4.1,0.7-5.9c0.5-1.8,1.2-3.3,2.2-4.6c1-1.3,2.2-2.3,3.5-3c1.3-0.7,2.8-1,4.3-1c1.5,0,2.9,0.3,4.1,1   c1.2,0.6,2.4,1.6,3.4,2.9c1,1.3,1.8,2.8,2.3,4.6c0.5,1.8,0.8,3.8,0.8,6.1l0,1.1H164h-19.1H143.8z M134.1,171.8   c-1,3.6-1.5,7.7-1.5,12.4c0,3.9,0.4,7.4,1.2,10.6c0.8,3.2,1.9,6,3.5,8.5c1.9,3.1,4.3,5.4,7.3,6.9c2.9,1.5,6.4,2.3,10.5,2.3   c2.5,0,4.9-0.3,7-1c2.1-0.7,4-1.7,5.6-3.1c1.7-1.4,3.1-3.1,4.4-5.1c1.1-1.7,2-3.7,2.7-5.8l-10.5-2.1c-0.3,1.1-0.7,2.1-1.1,2.9   c-0.6,1.2-1.3,2.1-2,2.8c-0.8,0.7-1.7,1.3-2.6,1.7c-1,0.4-2,0.6-3.2,0.6c-1.6,0-3.2-0.4-4.5-1.1c-1.4-0.7-2.6-1.7-3.7-3.1   c-1.1-1.4-1.9-3-2.4-4.9c-0.5-1.8-0.8-3.9-0.9-6.3l0-1.1h1.1h30.9c0-5.2-0.4-9.8-1.3-13.8c-1-4.2-2.4-7.6-4.4-10.3   c-2-2.7-4.3-4.7-7-6c-2.7-1.3-5.7-2-9.2-2c-3,0-5.8,0.6-8.3,1.9c-2.5,1.3-4.7,3.2-6.7,5.7h0C136.6,165.2,135.1,168.3,134.1,171.8z    M296.3,156.1V211h10.5v-26.6c0-2.8,0.1-5.1,0.3-7.1c0.2-2,0.4-3.7,0.8-4.9c0.4-1.3,0.9-2.4,1.5-3.4c0.6-1,1.4-1.9,2.3-2.6   c1.8-1.4,3.8-2.1,6-2.1c0.9,0,1.8,0.1,2.5,0.3c0.8,0.2,1.5,0.6,2.1,1.1c0.6,0.5,1.1,1.1,1.5,1.8c0.4,0.7,0.7,1.5,1,2.4   c0.2,0.9,0.4,2.3,0.6,4.1c0.1,1.8,0.2,4.1,0.2,6.9V211H336v-26.3c0-2.7,0.1-5.1,0.3-7.1c0.2-2,0.5-3.7,0.8-5   c0.4-1.3,0.9-2.5,1.5-3.5c0.6-1.1,1.4-2,2.3-2.7l0,0c0.9-0.7,1.8-1.3,2.8-1.6c1-0.4,2-0.6,3-0.6c1.4,0,2.7,0.3,3.8,1   c1.1,0.6,2,1.6,2.7,2.8l0,0c0.5,0.9,0.9,2.4,1.1,4.4c0.2,1.9,0.3,4.3,0.3,7.1V211h10.5v-35.4c0-2.7-0.1-5-0.3-6.9   c-0.2-1.9-0.5-3.4-0.9-4.5c-0.6-1.6-1.3-2.9-2.1-4.1c-0.8-1.1-1.8-2.1-3-2.9c-1.1-0.8-2.4-1.4-3.8-1.8c-1.4-0.4-2.9-0.6-4.6-0.6   c-2.6,0-5,0.7-7.3,2.1c-1.2,0.7-2.3,1.6-3.4,2.7c-1.1,1.1-2.2,2.4-3.2,3.8l-1.1,1.6l-0.8-1.7c-0.7-1.4-1.5-2.7-2.3-3.8   c-0.9-1.1-1.8-1.9-2.9-2.6h0c-2.1-1.4-4.6-2.1-7.4-2.1c-2.7,0-5.2,0.7-7.6,2.1c-2.4,1.4-4.6,3.6-6.6,6.4l-2,2.9v-3.5v-6.7H296.3z    M249,191.5c-0.6-2.3-0.9-4.9-0.9-7.8c0-2.9,0.3-5.5,0.9-7.8c0.6-2.3,1.5-4.3,2.7-5.9c1.2-1.6,2.6-2.9,4.2-3.7   c1.6-0.8,3.3-1.3,5.1-1.3c1.9,0,3.6,0.4,5.1,1.3c1.5,0.8,2.9,2.1,4.2,3.7c1.2,1.6,2.1,3.6,2.7,5.9c0.6,2.3,0.9,4.8,0.9,7.7   c0,3-0.3,5.6-0.9,7.9c-0.6,2.3-1.5,4.3-2.7,5.9c-1.2,1.6-2.6,2.9-4.2,3.7c-1.6,0.8-3.3,1.3-5.1,1.3c-1.9,0-3.6-0.4-5.1-1.3   c-1.5-0.8-2.9-2.1-4.2-3.7C250.5,195.7,249.6,193.8,249,191.5z M237.9,175.7c-0.5,2.4-0.8,4.7-0.8,7.2c0,3.2,0.3,6.2,0.8,8.9   c0.5,2.7,1.3,5.1,2.3,7.3c1,2.2,2.2,4.1,3.7,5.8c1.5,1.6,3.1,3,5,4.2c1.9,1.1,3.9,2,5.9,2.6c2,0.6,4.1,0.8,6.2,0.8   c3.4,0,6.5-0.7,9.4-2c2.8-1.4,5.4-3.4,7.6-6.1c2.3-2.7,4-5.8,5.1-9.3c1.1-3.5,1.7-7.3,1.7-11.5c0-4.2-0.6-8-1.7-11.4   c-1.1-3.4-2.8-6.5-5.1-9.2c-2.2-2.7-4.8-4.7-7.6-6c-2.8-1.3-6-2-9.5-2c-2.3,0-4.4,0.3-6.5,0.9c-2,0.6-4,1.5-5.8,2.7   c-1.8,1.2-3.4,2.6-4.9,4.3c-1.4,1.7-2.6,3.7-3.6,6C239.2,171,238.4,173.3,237.9,175.7z M187,171.4c-1,3.6-1.5,7.7-1.5,12.3   c0,4.6,0.5,8.6,1.5,12.2c1,3.5,2.5,6.5,4.5,9.1c2,2.5,4.3,4.4,7,5.6c2.7,1.2,5.7,1.9,9.1,1.9c3,0,5.7-0.4,8-1.2   c2.3-0.8,4.4-2,6.1-3.7c1.8-1.6,3.2-3.7,4.4-6.2c1.1-2.2,1.9-4.8,2.5-7.6l-10.4-2.1c-0.3,1.6-0.7,3-1.2,4.2   c-0.6,1.5-1.3,2.8-2.2,3.7c-0.9,0.9-1.9,1.6-3,2.1c-1.1,0.5-2.4,0.7-3.7,0.7c-1.8,0-3.4-0.4-4.9-1.2c-1.5-0.8-2.7-2-3.8-3.5   c-1-1.5-1.8-3.6-2.3-6.1c-0.5-2.5-0.8-5.5-0.8-8.9c0-3.1,0.2-5.8,0.7-8.1c0.5-2.3,1.3-4.2,2.3-5.6c1.1-1.4,2.3-2.5,3.7-3.3   c1.4-0.7,3-1.1,4.8-1.1c1.3,0,2.5,0.2,3.7,0.6c1.1,0.4,2.1,1.1,3,1.9l0,0c0.9,0.9,1.6,1.9,2.1,3.1c0.4,0.9,0.7,1.9,0.9,3l10.3-2.2   c-0.7-2.5-1.6-4.7-2.6-6.6c-1.2-2.2-2.6-3.9-4.2-5.3c-1.6-1.4-3.5-2.5-5.7-3.2c-2.2-0.7-4.7-1.1-7.6-1.1c-3.4,0-6.5,0.6-9.2,1.9   c-2.7,1.2-5,3.1-7,5.6C189.5,164.9,188,167.9,187,171.4z"></path>
</g>
</svg>
